<?xml version="1.0" standalone="no"?>
<!DOCTYPE svg PUBLIC "-//W3C//DTD SVG 20010904//EN"
 "http://www.w3.org/TR/2001/REC-SVG-20010904/DTD/svg10.dtd">
<svg version="1.0" xmlns="http://www.w3.org/2000/svg"
 width="700.000000pt" height="700.000000pt" viewBox="0 0 700.000000 700.000000"
 preserveAspectRatio="xMidYMid meet">
<metadata>
Created by potrace 1.14, written by Peter Selinger 2001-2017
</metadata>
<g transform="translate(0.000000,700.000000) scale(0.100000,-0.100000)"
fill="#000000" stroke="none">
<path d="M3259 6976 c-2 -2 -38 -6 -79 -9 -68 -6 -144 -15 -255 -32 -22 -4
-71 -13 -110 -22 -38 -8 -79 -16 -90 -18 -83 -12 -416 -118 -540 -170 -156
-66 -356 -166 -454 -225 -546 -333 -972 -770 -1273 -1308 -62 -111 -86 -158
-153 -307 -97 -213 -189 -523 -234 -785 -40 -230 -46 -316 -46 -610 0 -274 9
-391 46 -595 6 -33 13 -71 16 -85 13 -73 70 -289 103 -390 172 -525 457 -988
850 -1380 421 -421 951 -733 1510 -890 206 -58 425 -98 623 -115 40 -4 90 -8
112 -11 53 -5 354 -4 430 1 163 12 247 22 384 46 703 123 1350 457 1846 954
155 155 178 180 281 310 297 375 514 806 638 1265 14 52 27 109 30 125 3 17
10 45 15 63 5 18 10 35 10 37 -1 5 10 74 17 110 2 11 6 40 9 65 3 25 8 54 10
65 27 129 27 712 1 865 -3 14 -7 48 -11 75 -12 98 -66 345 -105 478 -45 154
-97 293 -169 455 -46 104 -66 142 -146 287 -96 172 -269 414 -414 580 -80 91
-293 296 -391 376 -558 457 -1154 704 -1910 788 -33 4 -547 10 -551 7z m461
-190 c58 -4 116 -8 130 -10 14 -3 50 -7 80 -10 182 -20 418 -75 623 -146 180
-61 241 -86 402 -165 868 -425 1513 -1228 1744 -2170 48 -194 82 -414 65 -416
-34 -4 -334 -3 -335 1 -1 3 -2 16 -4 30 -1 14 -5 39 -8 55 -4 17 -9 45 -12 63
-46 268 -150 578 -277 826 -145 282 -316 515 -548 746 -312 312 -675 541
-1094 692 -100 36 -327 100 -401 113 -16 2 -55 9 -85 15 -30 5 -77 12 -105 15
-27 3 -61 8 -75 12 -43 9 -521 12 -600 2 -148 -17 -176 -21 -215 -29 -22 -5
-56 -11 -75 -14 -84 -14 -212 -50 -231 -65 -14 -11 -23 -33 -26 -63 -5 -41 -2
-50 21 -73 32 -32 66 -31 216 4 238 56 539 77 800 57 94 -7 272 -31 318 -43
27 -6 29 7 -32 -219 l-42 -159 -30 1 c-30 1 -100 11 -144 21 -59 12 -468 11
-560 -2 -300 -43 -508 -105 -758 -226 -79 -39 -156 -78 -170 -88 -15 -10 -54
-36 -87 -57 -295 -192 -538 -441 -726 -744 -57 -92 -179 -339 -179 -362 0 -8
-4 -18 -9 -23 -16 -18 -72 -199 -78 -251 -5 -45 -3 -53 21 -77 26 -26 41 -31
81 -27 45 4 64 29 91 118 177 584 583 1068 1113 1330 148 73 180 86 326 134
604 197 1299 102 1840 -249 264 -172 467 -374 642 -640 79 -119 104 -138 162
-123 47 12 80 83 58 125 -13 25 -139 218 -147 225 -3 3 -24 29 -48 59 -198
253 -461 469 -757 622 -66 34 -121 63 -122 63 -1 1 18 76 44 166 44 160 51
187 52 203 2 15 28 6 136 -46 600 -291 1090 -807 1343 -1417 86 -205 168 -498
187 -666 3 -28 8 -61 10 -74 7 -36 19 -244 19 -330 0 -83 -13 -310 -18 -319
-2 -3 -7 -34 -10 -69 -26 -249 -140 -605 -283 -885 -65 -127 -69 -159 -24
-199 23 -21 38 -26 67 -23 20 2 45 12 55 22 43 44 159 290 231 488 37 103 109
366 122 445 16 102 37 263 39 303 1 25 5 49 9 52 4 4 37 7 75 7 37 -1 112 -1
166 -1 l98 -1 -5 -57 c-22 -240 -42 -366 -87 -548 -277 -1128 -1131 -2029
-2244 -2367 -143 -44 -415 -103 -522 -113 -37 -4 -70 -9 -73 -10 -11 -6 -260
-18 -375 -17 -121 0 -285 8 -340 17 -16 2 -52 7 -79 10 -47 6 -239 39 -281 49
-11 2 -40 9 -65 15 -84 19 -275 78 -375 116 -311 117 -590 273 -865 484 -299
230 -593 558 -787 879 -221 364 -355 713 -432 1122 -23 122 -35 217 -46 352
l-6 67 128 3 c174 4 218 -1 219 -27 0 -25 15 -171 20 -205 42 -269 109 -508
206 -740 92 -220 266 -513 412 -694 494 -613 1212 -1006 2001 -1093 90 -10
509 -10 599 0 123 14 210 27 306 47 205 44 230 58 230 133 0 77 -67 105 -176
72 -27 -8 -50 -14 -52 -14 -1 0 -26 -4 -55 -10 -28 -6 -65 -13 -82 -15 -16 -3
-59 -10 -95 -15 -83 -13 -249 -24 -365 -25 -91 0 -325 13 -335 19 -3 1 -30 6
-60 9 -80 9 -120 17 -125 25 -2 4 9 55 25 112 16 57 38 140 50 184 l21 81 112
-17 c155 -23 459 -22 627 2 769 113 1418 566 1774 1240 62 118 134 285 160
374 9 33 22 70 27 83 42 105 -47 194 -138 136 -16 -10 -31 -44 -54 -116 -238
-774 -867 -1346 -1654 -1506 -262 -53 -554 -59 -790 -16 -377 68 -715 218
-999 442 -181 142 -395 385 -512 581 -50 83 -83 111 -124 104 -53 -8 -94 -57
-87 -101 9 -54 168 -289 287 -428 49 -57 208 -212 267 -261 146 -122 318 -233
477 -308 74 -35 104 -54 101 -65 -2 -8 -25 -95 -50 -192 -40 -148 -50 -176
-64 -171 -9 4 -70 32 -136 63 -643 303 -1165 878 -1402 1545 -32 92 -72 223
-79 259 -3 16 -7 32 -9 36 -2 3 -6 17 -9 31 -2 13 -11 56 -19 94 -8 39 -18 97
-22 130 -4 32 -9 68 -11 80 -7 37 -18 229 -18 325 0 167 23 384 59 565 48 240
171 557 315 815 35 62 23 117 -31 146 -41 21 -83 10 -113 -29 -34 -46 -137
-246 -185 -359 -80 -189 -148 -418 -186 -620 -14 -76 -18 -102 -24 -153 -1
-11 -326 -14 -337 -3 -5 6 0 59 22 210 4 29 71 305 88 368 31 108 119 335 178
460 316 667 869 1227 1528 1548 326 158 696 270 1018 308 26 2 58 7 72 9 14 3
81 8 150 11 69 4 126 7 127 8 4 3 210 -2 303 -8z m610 -649 c36 -12 65 -24 65
-27 -1 -3 -23 -89 -50 -191 l-49 -186 -76 25 c-41 14 -77 26 -79 28 -2 2 18
87 44 189 38 144 52 185 64 184 9 0 45 -10 81 -22z m-3780 -2543 l0 -84 -170
0 c-106 0 -170 4 -171 10 0 6 -1 24 -1 40 0 17 1 50 1 74 l1 44 170 0 170 0 0
-84z m6241 29 c1 -29 1 -62 1 -73 0 -11 0 -24 -1 -30 -1 -6 -65 -10 -171 -10
l-170 0 0 84 0 84 170 0 170 -1 1 -54z m-3954 -2398 c36 -10 60 -22 58 -29 -2
-6 -25 -90 -50 -186 -26 -96 -48 -177 -50 -178 -9 -10 -155 42 -155 54 0 8 18
78 39 157 21 78 42 157 46 175 8 38 0 37 112 7z"/>
<path d="M2549 4606 c-2 -2 -22 -7 -44 -10 -22 -4 -69 -20 -104 -37 -210 -98
-333 -296 -328 -528 2 -77 5 -92 30 -130 57 -86 146 -86 327 -3 144 66 226 65
403 -6 151 -61 192 -69 243 -47 78 32 111 113 100 244 -13 151 -71 270 -186
379 -52 50 -181 115 -258 131 -51 11 -174 15 -183 7z m250 -231 c103 -56 175
-169 188 -293 7 -60 20 -60 -112 -4 -192 80 -322 76 -544 -17 l-74 -31 6 61
c7 83 54 175 117 232 122 110 276 129 419 52z"/>
<path d="M4282 4596 c-256 -64 -439 -308 -427 -571 3 -82 13 -110 50 -148 60
-59 140 -56 291 13 38 18 98 39 133 48 86 21 163 7 307 -54 131 -57 199 -63
252 -25 48 33 65 75 70 166 6 128 -43 288 -114 364 -13 14 -24 29 -24 33 0 15
-137 116 -184 137 -112 49 -249 63 -354 37z m268 -204 c102 -44 198 -167 217
-277 15 -88 14 -88 -93 -44 -217 89 -330 85 -583 -20 l-53 -22 6 55 c15 142
101 256 235 313 48 21 68 23 141 20 54 -3 101 -12 130 -25z"/>
<path d="M3422 3799 c-67 -12 -159 -67 -207 -124 -80 -93 -116 -190 -118 -310
-1 -102 16 -152 73 -206 49 -48 97 -67 187 -71 23 -1 44 -7 46 -12 2 -6 3
-110 3 -231 -1 -211 -2 -222 -25 -261 -38 -68 -112 -88 -171 -45 -34 24 -50
60 -60 134 -7 48 -15 67 -35 85 -39 33 -89 30 -127 -8 -30 -30 -30 -32 -24
-103 16 -180 134 -306 298 -315 77 -5 120 7 188 53 l50 34 51 -34 c194 -131
429 -23 480 221 22 107 -11 174 -87 174 -53 0 -83 -34 -94 -106 -14 -106 -56
-157 -126 -157 -44 0 -83 28 -109 79 -18 35 -20 61 -21 265 l-1 226 26 -2 c42
-2 122 15 160 35 88 45 124 116 123 240 0 284 -220 485 -480 439z m159 -200
c77 -38 127 -121 134 -223 7 -102 9 -101 -215 -101 -142 0 -192 3 -202 13 -18
18 -14 138 6 184 53 121 175 177 277 127z"/>
<path d="M2009 3241 c-42 -43 -35 -114 15 -140 37 -20 589 -108 618 -99 30 10
67 75 59 103 -16 53 -42 71 -116 84 -386 65 -490 81 -516 81 -20 0 -40 -10
-60 -29z"/>
<path d="M4857 3264 c-1 -1 -20 -5 -42 -8 -22 -4 -51 -9 -65 -11 -169 -28
-280 -47 -305 -51 -77 -12 -92 -16 -113 -32 -28 -22 -40 -84 -22 -117 7 -13
26 -30 41 -38 29 -13 64 -10 274 27 58 10 270 45 301 49 89 13 124 99 64 158
-26 26 -36 30 -80 28 -28 -2 -51 -4 -53 -5z"/>
<path d="M2490 2899 c-58 -10 -121 -21 -140 -24 -54 -9 -90 -15 -150 -25 -30
-6 -75 -13 -100 -16 -25 -4 -58 -13 -73 -21 -55 -28 -60 -114 -9 -154 32 -25
26 -25 337 27 116 19 228 37 250 40 94 12 131 133 54 175 -34 18 -59 17 -169
-2z"/>
<path d="M4353 2906 c-35 -16 -53 -42 -53 -80 0 -58 31 -88 105 -101 221 -37
470 -78 507 -82 43 -5 50 -2 78 25 35 35 40 84 12 118 -23 29 -47 40 -103 48
-25 4 -57 9 -70 11 -13 2 -107 18 -209 35 -102 17 -196 32 -210 35 -14 2 -39
-2 -57 -9z"/>
</g>
</svg>
