<?xml version="1.0" standalone="no"?>
<!DOCTYPE svg PUBLIC "-//W3C//DTD SVG 20010904//EN"
 "http://www.w3.org/TR/2001/REC-SVG-20010904/DTD/svg10.dtd">
<svg version="1.0" xmlns="http://www.w3.org/2000/svg"
 width="640.000000pt" height="640.000000pt" viewBox="0 0 640.000000 640.000000"
 preserveAspectRatio="xMidYMid meet">
<metadata>
Created by potrace 1.14, written by Peter Selinger 2001-2017
</metadata>
<g transform="translate(0.000000,640.000000) scale(0.100000,-0.100000)"
fill="#000000" stroke="none">
<path d="M3033 6235 c-139 -25 -220 -59 -426 -179 -78 -46 -232 -135 -342
-199 -110 -63 -267 -154 -350 -202 -82 -48 -166 -97 -185 -108 -19 -10 -96
-54 -170 -97 -74 -43 -151 -87 -170 -98 -19 -10 -93 -53 -165 -94 -71 -41
-179 -103 -240 -138 -185 -105 -274 -180 -372 -314 -74 -101 -117 -191 -156
-331 l-22 -80 0 -1180 c0 -649 4 -1202 9 -1230 4 -27 12 -58 17 -67 6 -10 7
-18 4 -18 -6 0 19 -68 57 -149 45 -99 110 -193 185 -268 100 -99 111 -107 373
-258 239 -137 258 -148 306 -176 20 -11 114 -65 209 -119 95 -54 187 -107 206
-118 19 -11 160 -93 314 -182 154 -90 294 -171 310 -180 17 -9 104 -60 195
-113 151 -88 284 -148 357 -162 16 -3 39 -8 53 -11 14 -3 79 -8 145 -10 203
-6 352 35 555 153 19 12 105 62 192 112 86 49 171 99 190 110 18 11 69 40 113
66 44 25 98 56 120 69 83 49 915 528 1070 616 17 9 55 32 85 50 234 142 393
365 449 631 19 91 19 132 17 1259 -1 641 -5 1179 -9 1195 -10 40 -16 68 -18
80 -2 18 -30 88 -61 154 -70 153 -182 286 -324 387 -24 17 -441 259 -614 356
-25 14 -74 42 -110 63 -36 21 -81 46 -100 57 -19 11 -39 24 -45 28 -5 4 -35
21 -65 37 -97 54 -374 215 -402 234 -15 11 -29 19 -31 19 -3 0 -56 30 -118 66
-63 36 -192 111 -287 166 -185 107 -283 148 -408 172 -95 17 -242 18 -341 1z"/>
</g>
</svg>
