<svg width="100" height="100" viewBox="0 0 100 100" fill="none" xmlns="http://www.w3.org/2000/svg">
<path d="M386.358 267.675C438.925 267.675 485.038 277.948 524.7 298.497C564.841 319.046 595.663 348.435 617.167 386.664C639.15 424.416 650.14 468.379 650.14 518.555C650.14 568.731 639.15 612.694 617.167 650.446C595.663 687.72 564.841 716.63 524.7 737.179C485.038 757.728 438.925 768.001 386.358 768.001H211.459V267.675H386.358ZM382.774 682.702C435.341 682.702 475.958 668.366 504.63 639.694C533.302 611.022 547.638 570.643 547.638 518.555C547.638 466.467 533.302 425.85 504.63 396.699C475.958 367.072 435.341 352.257 382.774 352.257H311.811V682.702H382.774Z" fill="#23262F"/>
<path d="M769.699 773.018C751.541 773.018 736.488 767.521 724.541 756.531C713.072 745.063 707.338 730.965 707.338 714.24C707.338 697.516 713.072 683.656 724.541 672.666C736.488 661.197 751.541 655.463 769.699 655.463C787.381 655.463 801.955 661.197 813.424 672.666C824.893 683.656 830.627 697.516 830.627 714.24C830.627 730.965 824.893 745.063 813.424 756.531C801.955 767.521 787.381 773.018 769.699 773.018Z" fill="#F77052"/>
</svg>
