<svg width="24" height="24" viewBox="0 0 24 24" fill="none" xmlns="http://www.w3.org/2000/svg">
<path d="M12 24C18.6274 24 24 18.6274 24 12C24 5.37258 18.6274 0 12 0C5.37258 0 0 5.37258 0 12C0 18.6274 5.37258 24 12 24Z" fill="#622ADA"/>
<path d="M12 3V9.6525L17.6228 12.165L12 3Z" fill="white" fill-opacity="0.602"/>
<path d="M12.3735 3L6.75 12.165L12.3735 9.6525V3Z" fill="white"/>
<path d="M12 16.764V21.2843L17.6265 13.5L12 16.764Z" fill="white" fill-opacity="0.602"/>
<path d="M12.3735 21.2843V16.7633L6.75 13.5L12.3735 21.2843Z" fill="white"/>
<path d="M12 15.5258L17.6228 12.261L12 9.75V15.5258Z" fill="white" fill-opacity="0.2"/>
<path d="M6.75 12.261L12.3735 15.5258V9.75L6.75 12.261Z" fill="white" fill-opacity="0.602"/>
</svg>
