<svg width="24" height="24" viewBox="0 0 24 24" fill="none" xmlns="http://www.w3.org/2000/svg">
<path fill-rule="evenodd" clip-rule="evenodd" d="M19.5 0C21.9837 0 24 2.01645 24 4.5V19.5C24 21.9835 21.9835 24 19.5 24H4.5C2.01645 24 0 21.9835 0 19.5V4.5C0 2.01645 2.0163 0 4.5 0H19.5ZM3.55675 20.4513H7.11955V8.99761H3.55675V20.4513ZM20.4519 20.4513V14.1697C20.4519 11.085 19.7859 8.7129 16.1825 8.7129C14.4504 8.7129 13.2884 9.663 12.8138 10.5636H12.765V8.9976H9.35223V20.4513H12.9077V14.7864C12.9077 13.2916 13.1904 11.8443 15.0431 11.8443C16.8698 11.8443 16.8932 13.5531 16.8932 14.881V20.4513H20.4519ZM5.33871 7.4322C6.47736 7.4322 7.40211 6.5082 7.40211 5.3682C7.40211 4.2288 6.47736 3.30405 5.33871 3.30405C4.19541 3.30405 3.27336 4.2288 3.27336 5.3682C3.27336 6.5082 4.19541 7.4322 5.33871 7.4322Z" fill="#2966BC"/>
</svg>
