<svg
  width="56"
  height="56"
  viewBox="0 0 56 56"
  fill="none"
  xmlns="http://www.w3.org/2000/svg"
>
      <line
    x1="51.5757"
    y1="28.6768"
    x2="54.3551"
    y2="28.6768"
    stroke="#FED823"
    stroke-width="1.5"
    stroke-linecap="round"
  />
      <line
    x1="51.5757"
    y1="25.8237"
    x2="54.3551"
    y2="25.8237"
    stroke="#FED823"
    stroke-width="1.5"
    stroke-linecap="round"
  />
      <line
    x1="1.64795"
    y1="28.6768"
    x2="4.42741"
    y2="28.6768"
    stroke="#FED823"
    stroke-width="1.5"
    stroke-linecap="round"
  />
      <line
    x1="1.64795"
    y1="25.8237"
    x2="4.42741"
    y2="25.8237"
    stroke="#FED823"
    stroke-width="1.5"
    stroke-linecap="round"
  />
      <line
    x1="35.083"
    y1="10.3539"
    x2="35.9393"
    y2="7.15809"
    stroke="#FED823"
    stroke-width="1.5"
    stroke-linecap="round"
  />
      <line
    x1="32.3281"
    y1="9.61562"
    x2="33.1844"
    y2="6.41981"
    stroke="#FED823"
    stroke-width="1.5"
    stroke-linecap="round"
  />
      <line
    x1="23.0927"
    y1="49.5829"
    x2="23.949"
    y2="46.3871"
    stroke="#FED823"
    stroke-width="1.5"
    stroke-linecap="round"
  />
      <line
    x1="20.3378"
    y1="48.8446"
    x2="21.1941"
    y2="45.6488"
    stroke="#FED823"
    stroke-width="1.5"
    stroke-linecap="round"
  />
      <path
    d="M31.5669 23.6592C31.5669 21.5652 33.2186 19.8677 35.2561 19.8677C37.2936 19.8677 38.9453 21.5652 38.9453 23.6592C38.9453 25.7532 37.2936 23.6592 35.2561 23.6592C33.2186 23.6592 31.5669 25.7532 31.5669 23.6592Z"
    stroke="#FF7BED"
    stroke-width="1.5"
    stroke-linecap="round"
  />
      <path
    d="M28.0002 30.5663C29.3789 30.5663 30.4965 30.7316 30.4965 29.1502C30.4965 27.5688 29.3789 26.2868 28.0002 26.2868C26.6215 26.2868 25.5038 27.5688 25.5038 29.1502C25.5038 30.7316 26.6215 30.5663 28.0002 30.5663ZM28.0002 30.5663C28.0002 31.5173 28.0002 33.6333 28.0002 34.4892M28.0002 34.4892C28.0002 37.3422 31.5664 37.3421 31.5664 34.4892M28.0002 34.4892C28.0002 37.3421 24.434 37.3421 24.434 34.4892"
    stroke="#FF7BED"
    stroke-width="1.5"
    stroke-linecap="round"
  />
      <path
    d="M17.3052 23.6592C17.3052 21.5652 18.9569 19.8677 20.9944 19.8677C23.0319 19.8677 24.6836 21.5652 24.6836 23.6592C24.6836 25.7532 23.0319 23.6592 20.9944 23.6592C18.9569 23.6592 17.3052 25.7532 17.3052 23.6592Z"
    stroke="#FF7BED"
    stroke-width="1.5"
    stroke-linecap="round"
  />
      <path
    d="M39.4123 30.5664L35.1328 31.2796"
    stroke="#FF7BED"
    stroke-width="1.5"
    stroke-linecap="round"
  />
      <path
    d="M35.1346 33.4189L39.4141 34.1322"
    stroke="#FF7BED"
    stroke-width="1.5"
    stroke-linecap="round"
  />
      <path
    d="M16.5872 30.5659L20.8667 31.2792"
    stroke="#FF7BED"
    stroke-width="1.5"
    stroke-linecap="round"
  />
      <path
    d="M20.8674 33.4189L16.5879 34.1322"
    stroke="#FF7BED"
    stroke-width="1.5"
    stroke-linecap="round"
  />
      <circle
    cx="28.0012"
    cy="27.9997"
    r="27.1033"
    stroke="#FED823"
    stroke-width="1.5"
    stroke-linecap="round"
  />
      <path
    d="M33.9173 50.0829C27.8987 51.6956 21.7973 50.7498 16.7678 47.9123C11.6056 44.9999 7.57255 40.0946 5.9173 33.9171C4.26206 27.7396 5.30208 21.475 8.31652 16.3716M22.0831 5.9171C28.2606 4.26185 34.5253 5.30188 39.6286 8.31631C44.6007 11.2532 48.4704 16.0643 50.0831 22.0829C51.6958 28.1015 50.75 34.2029 47.9125 39.2324"
    stroke="#FED823"
    stroke-width="1.5"
    stroke-linecap="round"
  />
      <path
    d="M45.5998 32.7153C44.3147 37.5116 41.2308 41.3456 37.2685 43.686C33.2016 46.0882 28.2093 46.917 23.2864 45.598C18.3636 44.2789 14.4544 41.0649 12.1335 36.9511M10.4038 23.2846C11.7228 18.3617 14.9368 14.4526 19.0506 12.1317C23.0587 9.87042 27.9209 9.11675 32.7172 10.4019C37.5134 11.6871 41.3474 14.7709 43.6879 18.7332"
    stroke="#FED823"
    stroke-width="1.5"
    stroke-linecap="round"
  />
    </svg>