<svg width="24" height="20" viewBox="0 0 24 20" fill="none" xmlns="http://www.w3.org/2000/svg">
<path d="M23.643 2.93701C22.808 3.30701 21.911 3.55701 20.968 3.67001C21.93 3.09401 22.668 2.18001 23.016 1.09201C22.116 1.62601 21.119 2.01401 20.058 2.22201C19.208 1.31801 17.998 0.752014 16.658 0.752014C14.086 0.752014 12 2.83801 12 5.41201C12 5.77601 12.042 6.13001 12.12 6.47201C8.24701 6.27701 4.81601 4.42201 2.51801 1.60401C2.11801 2.29401 1.88801 3.09401 1.88801 3.94601C1.88801 5.56201 2.71101 6.98901 3.96001 7.82401C3.19601 7.79901 2.47801 7.59001 1.85001 7.24101V7.30101C1.85001 9.55801 3.45501 11.441 5.58701 11.869C5.19501 11.975 4.78401 12.031 4.36001 12.031C4.06001 12.031 3.76701 12.003 3.48301 11.949C4.07601 13.799 5.79601 15.147 7.83501 15.183C6.24001 16.433 4.23101 17.178 2.04901 17.178C1.67301 17.178 1.30201 17.156 0.937012 17.113C2.99901 18.436 5.44701 19.206 8.07701 19.206C16.647 19.206 21.332 12.108 21.332 5.95201C21.332 5.75201 21.327 5.55001 21.318 5.35001C22.228 4.69201 23.018 3.87301 23.641 2.94001L23.643 2.93701Z" fill="#1DA1F2"/>
</svg>
